<?xml version="1.0" standalone="no"?>
<!DOCTYPE svg PUBLIC "-//W3C//DTD SVG 20010904//EN"
 "http://www.w3.org/TR/2001/REC-SVG-20010904/DTD/svg10.dtd">
<svg version="1.0" xmlns="http://www.w3.org/2000/svg"
 width="512.000000pt" height="512.000000pt" viewBox="0 0 512.000000 512.000000"
 preserveAspectRatio="xMidYMid meet">

<g transform="translate(0.000000,512.000000) scale(0.100000,-0.100000)"
fill="#000000" stroke="none">
<path d="M2510 4915 c-48 -69 -76 -101 -78 -90 -3 15 -7 14 -29 -7 l-26 -23 5
33 c2 17 2 32 0 32 -10 0 -98 -75 -159 -134 l-63 -60 0 42 c0 23 -4 42 -8 42
-11 0 -106 -108 -172 -196 -29 -38 -80 -98 -113 -134 l-60 -65 37 70 c20 39
57 95 84 125 45 52 45 53 12 30 -64 -45 -130 -123 -165 -195 -39 -78 -50 -126
-60 -263 l-7 -93 -37 -18 c-50 -26 -135 -119 -151 -164 -13 -42 -8 -56 14 -38
12 10 13 2 9 -54 -6 -67 -1 -78 24 -47 13 16 14 15 8 -8 -23 -93 -28 -162 -15
-231 12 -72 13 -72 25 -43 13 29 13 28 14 -22 1 -47 -2 -54 -44 -97 -54 -56
-79 -130 -79 -232 0 -104 25 -168 93 -236 80 -79 175 -108 261 -78 37 13 40
10 66 -61 9 -25 36 -89 61 -143 24 -53 41 -102 38 -107 -3 -6 -17 -10 -30 -10
-60 0 -225 -89 -225 -121 0 -6 6 -7 13 -3 6 4 4 -2 -5 -13 -10 -11 -18 -26
-18 -34 0 -8 -5 -20 -12 -27 -8 -8 -11 -52 -10 -134 2 -120 1 -123 -26 -152
-15 -16 -20 -26 -12 -22 8 4 6 0 -4 -8 -11 -9 -16 -16 -11 -16 4 0 1 -8 -7
-17 -19 -23 -30 -50 -34 -88 -6 -50 -5 -115 1 -125 5 -9 -29 -29 -61 -35 -6
-2 -27 -10 -45 -18 -19 -9 -70 -32 -114 -52 -44 -20 -95 -50 -112 -67 -18 -18
-40 -33 -48 -34 -9 -1 -30 -16 -47 -33 -18 -17 -36 -31 -40 -31 -5 0 -6 -5 -3
-11 4 -6 0 -9 -8 -7 -9 2 -16 -1 -17 -7 -2 -18 -43 -55 -53 -48 -6 3 -7 1 -4
-4 4 -6 -9 -27 -28 -48 -19 -20 -32 -41 -29 -47 4 -6 3 -8 -3 -5 -5 4 -23 -8
-39 -25 -16 -17 -22 -27 -14 -23 8 5 -2 -10 -22 -33 -21 -23 -38 -46 -38 -51
0 -5 -12 -24 -27 -43 -19 -22 -21 -28 -8 -18 11 8 4 -3 -15 -24 -19 -22 -28
-35 -21 -31 8 5 4 -7 -9 -25 -13 -18 -17 -30 -9 -25 7 4 1 -6 -15 -23 -17 -18
-26 -32 -22 -32 5 0 1 -12 -9 -26 -11 -18 -13 -24 -4 -19 8 5 6 -1 -3 -12 -10
-11 -18 -26 -18 -35 0 -8 -3 -18 -7 -22 -5 -4 -8 -11 -9 -14 -1 -11 -15 -46
-25 -66 -8 -13 -7 -16 1 -11 8 5 9 2 1 -11 -12 -24 -23 -54 -28 -79 -8 -43
-10 -51 -18 -69 -5 -12 -3 -21 5 -26 19 -12 200 -61 514 -141 147 -37 271 -70
274 -74 3 -3 6 -57 7 -119 l0 -114 -40 3 c-48 5 -86 12 -140 27 -22 6 -51 12
-65 15 -14 2 -131 34 -260 71 -173 50 -234 71 -232 81 3 12 1 12 -13 1 -13
-11 -18 -11 -28 0 -10 10 -9 11 3 5 8 -5 11 -4 7 0 -11 13 -38 15 -31 3 4 -7
2 -8 -5 -4 -6 4 -23 10 -37 12 -21 4 -25 2 -20 -11 3 -9 2 -13 -4 -10 -6 3
-10 0 -10 -8 0 -23 53 -40 438 -136 l361 -91 1214 0 1215 0 234 60 c313 80
549 147 562 160 7 7 6 10 -3 10 -7 0 -9 4 -6 10 9 14 13 15 -157 -34 -170 -49
-365 -99 -472 -121 -39 -8 -84 -17 -101 -20 -67 -14 -95 -12 -113 9 -9 10 -11
16 -4 12 13 -8 17 6 5 18 -11 10 -12 37 -2 30 13 -8 11 10 -3 24 -7 7 -8 12
-4 12 5 0 2 8 -5 18 -13 15 -12 16 3 3 10 -7 15 -18 11 -24 -4 -6 -1 -7 7 -2
8 5 11 4 7 -2 -4 -6 1 -17 11 -24 15 -13 16 -12 3 4 -7 9 -10 17 -5 17 4 0 3
5 -4 12 -14 14 -16 32 -3 24 10 -7 9 20 -2 30 -11 11 -8 26 3 19 16 -10 11 1
-7 16 -14 12 -16 12 -8 0 6 -10 4 -12 -4 -6 -25 15 8 27 215 81 173 46 475
128 547 150 17 5 17 7 2 31 -12 17 -13 23 -4 17 12 -7 12 -5 1 9 -8 9 -11 20
-8 26 3 5 0 11 -8 14 -9 4 -13 16 -12 32 2 14 -1 28 -7 32 -6 3 -7 1 -3 -5 3
-6 2 -13 -3 -17 -6 -3 -8 4 -6 16 3 13 -1 29 -8 38 -10 12 -9 13 3 7 8 -4 7
-1 -3 7 -10 9 -18 18 -18 21 3 21 -1 26 -11 20 -9 -6 -9 -3 0 9 15 18 7 41
-11 30 -7 -4 -5 2 3 12 8 10 10 16 4 12 -7 -4 -15 0 -18 9 -3 8 -2 13 2 10 5
-3 9 1 9 9 0 8 -3 13 -6 11 -3 -1 -16 8 -29 20 -17 16 -20 24 -11 30 8 5 9 3
4 -6 -5 -9 -4 -11 4 -6 6 4 9 12 5 17 -3 5 -9 7 -14 4 -4 -3 -11 2 -14 11 -4
10 -2 13 7 9 6 -4 3 1 -7 9 -16 13 -23 13 -35 4 -10 -8 -8 -4 3 10 18 21 13
28 -17 23 -5 -1 -6 3 -2 9 3 6 12 8 18 4 7 -3 1 4 -13 16 -14 12 -19 18 -11
14 10 -5 12 -3 7 5 -5 7 -14 10 -22 7 -17 -7 -28 10 -13 20 8 5 9 3 4 -6 -6
-9 -4 -11 5 -5 10 6 9 11 -5 21 -10 7 -22 11 -28 7 -6 -3 -7 -1 -3 6 4 6 12 8
18 5 7 -4 8 -2 4 4 -8 13 -33 12 -56 -3 -13 -8 -13 -7 -1 8 7 9 17 15 21 12 5
-3 12 0 16 6 4 7 3 9 -3 6 -6 -4 -18 0 -28 7 -14 10 -15 15 -5 21 8 5 11 4 7
-2 -3 -5 0 -10 8 -10 11 0 12 4 3 14 -6 7 -13 11 -16 8 -3 -3 -13 8 -23 25
-13 21 -23 28 -35 23 -11 -4 -15 -2 -11 4 10 16 -21 53 -40 46 -12 -5 -14 -3
-8 7 5 9 4 11 -4 6 -8 -5 -10 0 -7 17 4 22 1 25 -19 21 -13 -2 -27 0 -30 6 -4
6 -11 8 -16 4 -5 -3 -7 -9 -4 -14 3 -4 -2 -13 -11 -20 -13 -12 -14 -10 -10 12
4 26 -6 31 -31 15 -7 -5 -19 -5 -25 0 -7 4 -19 8 -27 8 -8 0 -16 6 -19 13 -3
9 4 11 20 8 16 -2 25 1 25 9 0 8 -9 11 -24 9 -18 -3 -23 -1 -17 8 4 7 3 10 -1
5 -5 -4 -17 0 -27 10 -20 18 -25 38 -5 27 9 -5 9 -4 0 6 -9 10 -8 18 3 35 10
16 12 25 5 30 -7 4 -8 13 -3 23 27 56 -8 79 -281 184 -27 10 -28 13 -24 70 2
32 1 61 -3 63 -4 3 -11 20 -14 39 -4 18 -15 41 -26 51 -11 10 -20 22 -20 27 0
5 -8 21 -17 35 -15 22 -18 50 -18 149 -1 80 -5 127 -13 136 -6 8 -9 18 -6 21
4 4 -1 17 -9 31 -10 14 -12 26 -6 28 5 2 -8 21 -29 43 -37 38 -92 63 -209 92
l-32 8 30 85 c31 89 48 243 29 255 -6 3 -10 2 -10 -3 0 -6 -10 -12 -23 -16
-12 -3 -31 -20 -41 -38 -11 -18 -34 -47 -51 -64 l-32 -32 -12 35 c-33 90 -137
141 -263 129 l-69 -6 25 42 c33 57 35 77 11 126 -21 44 -47 65 -38 31 3 -10 0
-19 -6 -19 -6 0 -11 -11 -11 -25 0 -19 -7 -26 -32 -33 -54 -14 -65 -6 -62 41
2 27 10 48 23 58 20 16 19 17 -14 45 -47 39 -58 70 -50 141 9 70 25 104 60
127 33 22 70 14 108 -22 22 -21 27 -34 27 -76 0 -105 37 -169 105 -182 50 -9
114 32 107 69 -1 4 3 7 9 7 5 0 7 4 4 10 -3 5 0 20 8 32 8 13 19 61 25 108 13
98 13 121 1 136 -17 21 18 37 65 30 50 -8 96 13 96 43 0 32 -51 120 -89 154
-48 43 -107 57 -237 57 -52 0 -105 5 -116 11 -35 19 -52 -11 -58 -99 l-5 -77
-64 -3 c-35 -2 -77 2 -93 9 -27 11 -28 14 -28 83 0 40 -5 77 -10 82 -7 7 -50
9 -113 6 -121 -5 -133 1 -140 70 -4 43 -1 51 27 80 36 36 116 64 266 92 191
35 254 48 269 56 72 36 102 42 177 36 43 -3 82 -10 88 -16 5 -5 17 -10 27 -10
26 0 89 -103 89 -145 0 -20 25 -110 55 -200 46 -137 55 -176 55 -235 0 -38 9
-125 19 -192 27 -166 35 -267 22 -248 -9 12 -11 11 -11 -8 0 -14 4 -21 11 -16
8 4 10 -25 7 -100 l-3 -106 34 -11 c85 -28 212 22 269 107 42 64 41 74 -5 23
-66 -73 -136 -95 -207 -65 -39 16 -51 31 -35 42 8 5 10 2 5 -7 -4 -8 -1 -6 7
4 8 9 25 17 38 17 99 0 179 80 194 195 3 28 8 61 11 74 5 22 6 23 24 6 19 -17
20 -17 20 2 0 43 -33 113 -67 144 -33 28 -36 35 -37 89 0 32 2 56 7 53 4 -2 7
-12 7 -21 0 -12 3 -13 12 -4 19 19 22 178 5 245 -15 57 -15 58 3 42 18 -16 19
-16 25 8 4 14 5 34 2 44 -3 10 -8 29 -12 41 -6 22 -5 23 14 13 17 -10 21 -9
21 4 0 55 -68 143 -146 186 l-52 30 -7 112 c-4 62 -16 139 -26 173 -21 70 -81
165 -130 209 -88 78 -93 80 -42 15 46 -59 109 -168 101 -175 -3 -3 -130 145
-196 230 -21 28 -62 75 -90 105 l-51 55 -1 -36 c0 -20 -2 -38 -5 -41 -3 -3
-24 13 -46 35 -23 21 -72 63 -108 94 l-66 54 -3 -32 -3 -31 -25 23 c-21 20
-24 20 -24 5 0 -17 -132 155 -141 183 -3 7 -38 -36 -79 -94z m400 -1665 c0 -5
-4 -10 -10 -10 -5 0 -10 5 -10 10 0 6 5 10 10 10 6 0 10 -4 10 -10z m668 -137
c22 -5 23 -9 17 -52 -4 -25 -13 -57 -20 -71 -20 -37 -66 -78 -99 -86 -26 -6
-27 -5 -17 14 18 33 13 37 -13 13 -33 -31 -47 -23 -25 14 11 17 19 24 19 16 0
-11 4 -9 16 5 8 10 13 13 9 7 -3 -7 -1 -13 4 -13 14 0 14 57 1 65 -5 3 -10 15
-10 26 0 11 4 18 9 14 6 -3 13 0 18 7 8 13 53 47 63 47 3 1 16 -2 28 -6z
m-763 -467 c0 -105 -398 -123 -435 -20 -16 41 1 48 79 36 89 -15 159 -14 241
3 95 20 115 17 115 -19z m-530 -83 c8 -35 63 -92 119 -121 48 -25 59 -27 181
-27 129 0 130 0 193 34 57 31 110 82 125 121 4 11 6 11 6 -3 2 -53 -47 -109
-139 -158 -40 -21 -57 -24 -165 -24 -102 1 -129 4 -179 24 -111 44 -179 134
-159 208 l8 28 3 -30 c1 -16 5 -40 7 -52z m1589 -1248 c-3 -7 0 -16 6 -20 8
-5 8 -11 -1 -21 -8 -10 -9 -17 0 -28 9 -10 8 -16 -4 -26 -8 -7 -16 -10 -16 -6
-5 23 -4 33 3 48 4 9 4 19 -1 22 -5 3 -12 -1 -15 -10 -3 -8 -10 -12 -16 -9 -7
4 -7 12 0 24 5 10 6 22 2 26 -4 5 -1 5 6 1 14 -9 17 10 2 19 -6 4 -8 11 -4 16
8 14 44 -20 38 -36z m50 -46 c-3 -5 -10 -7 -15 -3 -5 3 -7 10 -3 15 3 5 10 7
15 3 5 -3 7 -10 3 -15z m50 0 c-3 -5 -9 -7 -14 -4 -8 5 -37 -24 -32 -33 1 -3
-5 -7 -14 -8 -11 -2 -6 9 16 31 18 19 37 32 42 29 4 -3 6 -10 2 -15z m74 3 c5
2 10 -1 11 -7 1 -5 -4 -10 -11 -10 -6 0 -12 -8 -14 -17 -3 -20 7 -23 23 -7 6
6 13 7 16 1 4 -5 -9 -24 -28 -42 -19 -19 -35 -32 -36 -29 0 2 -2 12 -4 21 -2
10 2 16 7 15 6 -1 12 3 14 9 3 6 -11 10 -32 10 -27 -1 -38 3 -39 15 -2 11 3
16 14 14 21 -3 53 24 44 39 -4 6 0 5 9 -2 9 -7 20 -11 26 -10z m78 -85 c-1 -7
-4 -12 -7 -12 -12 0 -39 -28 -34 -35 3 -4 -2 -13 -10 -20 -8 -7 -15 -11 -16
-9 -6 31 -6 38 1 34 4 -2 15 4 25 15 16 18 8 30 -9 13 -3 -4 -14 -8 -23 -9
-10 -2 -3 10 18 32 30 31 35 33 45 19 7 -9 11 -22 10 -28z m-242 -8 c-3 -5
-10 -7 -15 -3 -5 3 -7 10 -3 15 3 5 10 7 15 3 5 -3 7 -10 3 -15z m42 6 c-1 -8
-5 -17 -8 -21 -5 -4 -4 16 1 34 3 9 9 -1 7 -13z m59 3 c4 -3 2 -9 -3 -12 -5
-3 -15 1 -21 8 -10 11 -9 14 3 12 9 -1 18 -5 21 -8z m179 -29 c-3 -5 -9 -7
-14 -4 -4 3 -13 -2 -20 -10 -7 -8 -9 -15 -6 -15 4 0 4 -5 1 -10 -4 -6 -11 -8
-17 -4 -5 4 2 18 18 35 24 25 53 32 38 8z m-137 -22 c0 -8 -6 -14 -14 -14 -9
0 -10 4 -2 14 6 7 12 13 14 13 1 0 2 -6 2 -13z m149 -4 c-2 -9 -11 -17 -20
-19 -17 -2 -17 -2 0 17 21 23 23 23 20 2z m-57 -47 c9 -11 9 -16 -1 -22 -7 -4
-10 -4 -6 1 4 4 3 14 -3 22 -6 7 -9 13 -6 13 2 0 10 -6 16 -14z m60 -13 c-6
-7 -15 -10 -20 -7 -13 8 -3 21 15 21 12 0 13 -4 5 -14z m45 -54 c-3 -5 -10 -7
-15 -3 -5 3 -7 10 -3 15 3 5 10 7 15 3 5 -3 7 -10 3 -15z m-470 -811 c-3 -4
-10 -6 -15 -2 -6 3 -8 9 -5 12 3 3 -2 15 -11 26 -13 16 -11 15 9 -3 15 -13 25
-28 22 -33z"/>
<path d="M3840 1346 c0 -2 8 -10 18 -17 15 -13 16 -12 3 4 -13 16 -21 21 -21
13z"/>
<path d="M3844 1298 c-4 -7 -4 -10 1 -6 4 4 15 2 24 -5 14 -11 14 -10 2 6 -16
20 -18 21 -27 5z"/>
<path d="M3863 1235 c0 -8 4 -12 9 -9 5 3 6 10 3 15 -9 13 -12 11 -12 -6z"/>
<path d="M4012 1249 c-7 -11 -19 -18 -27 -15 -8 3 -17 1 -19 -3 -3 -4 9 -8 26
-7 24 1 32 6 34 24 5 27 2 28 -14 1z"/>
<path d="M4034 1198 l-29 -33 33 29 c17 17 32 31 32 33 0 8 -8 1 -36 -29z"/>
<path d="M4079 1193 c-13 -16 -15 -20 -5 -11 18 16 20 16 31 1 11 -14 12 -14
12 1 0 9 -4 16 -9 16 -5 0 -6 5 -3 10 12 19 -2 10 -26 -17z"/>
<path d="M1249 1493 c-13 -16 -12 -17 4 -4 9 7 17 15 17 17 0 8 -8 3 -21 -13z"/>
<path d="M3950 1335 c-7 -8 -11 -15 -9 -16 31 -6 37 -5 35 7 -3 22 -12 25 -26
9z"/>
<path d="M3746 122 c-3 -5 9 -22 27 -38 l32 -29 -25 28 c-14 16 -23 31 -22 34
2 2 1 7 -1 9 -3 3 -8 1 -11 -4z"/>
<path d="M605 51 c-3 -5 -2 -12 3 -15 5 -3 9 1 9 9 0 17 -3 19 -12 6z"/>
</g>
</svg>
